# xmcd
#
# Track frame offsets:
#        183
#        17615
#        38698
#        65858
#
# Disc length: 1149 seconds
#
# Revision: 0
# Processed by: cddbd v1.5.1PL2 Copyright (c) Steve Scherf et al.
# Submitted via: ExactAudioCopy v0.95b2
#
DISCID=2d047b04
DTITLE=Paul McCartney - Off The Ground (ep)
DYEAR=1993
DGENRE=Rock
TTITLE0=Off The Ground (Remix)
TTITLE1=Cosmically Conscious
TTITLE2=Style Style
TTITLE3=Sweet Sweet Memories and Soggy Noodle
EXTD=
EXTT0=
EXTT1=
EXTT2=
EXTT3=
PLAYORDER=
